<svg width="120" height="120" viewBox="0 0 120 120" fill="none" xmlns="http://www.w3.org/2000/svg">
<rect width="120" height="120" fill="#FDFDF8"/>
<path d="M60 10C32.4281 10 10 32.4281 10 60C10 87.5719 32.4281 110 60 110C87.5719 110 110 87.5719 110 60C110 32.4281 87.5719 10 60 10ZM60 107.935C33.5663 107.935 12.0646 86.4337 12.0646 60C12.0646 33.5663 33.5663 12.0646 60 12.0646C86.4337 12.0646 107.935 33.5663 107.935 60C107.935 86.4337 86.4337 107.935 60 107.935Z" fill="#1F1F1F"/>
<path d="M60.0007 20.2175C38.0579 20.2175 20.2178 38.0665 20.2178 60.0005C20.2178 81.9345 38.0667 99.7834 60.0007 99.7834C81.9347 99.7834 99.7837 81.9345 99.7837 60.0005C99.7837 38.0665 81.9347 20.2175 60.0007 20.2175ZM60.0007 96.713C39.7607 96.713 23.2882 80.2493 23.2882 60.0005C23.2882 39.7517 39.7519 23.2879 60.0007 23.2879C80.2495 23.2879 96.7133 39.7517 96.7133 60.0005C96.7133 80.2493 80.2495 96.713 60.0007 96.713Z" fill="#1F1F1F"/>
<path d="M60 30.4255C43.6951 30.4255 30.4253 43.6953 30.4253 60.0003C30.4253 76.3052 43.6951 89.575 60 89.575C76.3049 89.575 89.5748 76.3052 89.5748 60.0003C89.5748 43.6953 76.3049 30.4255 60 30.4255ZM60 85.4899C45.945 85.4899 34.5103 74.0553 34.5103 60.0003C34.5103 45.9452 45.945 34.5106 60 34.5106C74.0551 34.5106 85.4897 45.9452 85.4897 60.0003C85.4897 74.0553 74.0551 85.4899 60 85.4899Z" fill="#1F1F1F"/>
<path d="M59.9998 40.634C49.324 40.634 40.6333 49.3247 40.6333 60.0005C40.6333 70.6764 49.324 79.3671 59.9998 79.3671C70.6757 79.3671 79.3663 70.6764 79.3663 60.0005C79.3663 49.3247 70.6757 40.634 59.9998 40.634ZM59.9998 74.2674C52.1297 74.2674 45.733 67.8707 45.733 60.0005C45.733 52.1304 52.1297 45.7337 59.9998 45.7337C67.8699 45.7337 74.2666 52.1304 74.2666 60.0005C74.2666 67.8707 67.8699 74.2674 59.9998 74.2674Z" fill="#1F1F1F"/>
<path d="M59.9995 69.2642C65.116 69.2642 69.2637 65.1165 69.2637 60C69.2637 54.8835 65.116 50.7358 59.9995 50.7358C54.8831 50.7358 50.7354 54.8835 50.7354 60C50.7354 65.1165 54.8831 69.2642 59.9995 69.2642Z" fill="#1F1F1F"/>
</svg>
