<?xml version="1.0" standalone="no"?>
<!DOCTYPE svg PUBLIC "-//W3C//DTD SVG 20010904//EN"
 "http://www.w3.org/TR/2001/REC-SVG-20010904/DTD/svg10.dtd">
<svg version="1.0" xmlns="http://www.w3.org/2000/svg"
 width="260.000000pt" height="260.000000pt" viewBox="0 0 260.000000 260.000000"
 preserveAspectRatio="xMidYMid meet">
<metadata>
Created by potrace 1.11, written by Peter Selinger 2001-2013
</metadata>
<g transform="translate(0.000000,260.000000) scale(0.100000,-0.100000)"
fill="#000000" stroke="none">
<path d="M0 1300 l0 -1300 1300 0 1300 0 0 1300 0 1300 -1300 0 -1300 0 0
-1300z m1550 967 c182 -48 325 -129 456 -261 126 -126 204 -259 261 -443 24
-81 27 -102 27 -263 0 -200 -13 -267 -83 -415 -52 -112 -102 -185 -185 -273
-94 -99 -172 -156 -291 -213 -161 -77 -239 -94 -435 -94 -140 1 -178 4 -250
24 -178 48 -325 134 -460 270 -132 133 -216 282 -262 468 -30 118 -31 330 -4
448 87 376 374 670 738 755 121 28 131 29 268 25 92 -3 150 -10 220 -28z"/>
<path d="M1200 2214 c-76 -10 -209 -48 -276 -79 -592 -271 -726 -1048 -258
-1496 116 -110 231 -177 390 -225 79 -24 105 -27 239 -28 166 -1 229 11 367
69 154 65 309 194 403 335 238 358 197 826 -99 1138 -170 179 -384 276 -631
286 -55 2 -116 2 -135 0z m267 -120 c306 -63 544 -293 624 -603 25 -97 27
-266 4 -371 -23 -106 -101 -260 -174 -346 -155 -184 -375 -285 -621 -285 -235
0 -420 80 -586 252 -86 90 -142 184 -186 309 -31 91 -33 101 -33 250 0 149 2
159 33 250 43 124 98 215 185 306 115 122 260 204 422 239 84 19 241 18 332
-1z"/>
<path d="M1207 2039 c-373 -49 -649 -364 -649 -739 0 -291 158 -544 417 -670
118 -57 191 -74 325 -74 140 0 209 16 340 81 80 39 109 61 186 137 76 77 98
106 137 186 65 131 81 200 81 340 0 172 -39 294 -139 435 -155 218 -432 339
-698 304z m286 -143 c108 -36 164 -72 247 -155 130 -130 184 -263 184 -446 0
-96 -4 -121 -30 -195 -38 -107 -86 -181 -172 -262 -156 -146 -369 -201 -576
-148 -108 27 -189 73 -278 158 -83 79 -140 174 -174 287 -25 82 -25 248 0 330
70 235 266 413 501 455 80 14 217 3 298 -24z"/>
<path d="M1156 1854 c-92 -22 -173 -71 -257 -154 -117 -116 -169 -238 -169
-399 0 -152 55 -291 157 -396 231 -236 589 -240 818 -10 199 200 227 496 69
728 -108 158 -281 248 -475 246 -46 0 -110 -7 -143 -15z m259 -129 c124 -32
231 -123 289 -245 29 -61 31 -72 31 -180 0 -109 -2 -119 -32 -183 -44 -93
-119 -169 -212 -215 -73 -36 -77 -37 -190 -37 -111 0 -119 1 -184 33 -143 70
-243 213 -254 365 -23 305 255 538 552 462z"/>
<path d="M1183 1686 c-109 -35 -215 -133 -254 -234 -78 -206 9 -421 209 -515
156 -73 335 -36 457 94 68 73 98 145 103 250 9 177 -73 311 -235 387 -47 22
-74 27 -148 29 -55 2 -106 -3 -132 -11z m239 -162 c106 -54 159 -190 119 -308
-18 -51 -85 -124 -136 -147 -46 -21 -130 -24 -187 -7 -22 6 -59 29 -82 49
-126 111 -112 317 27 403 83 51 170 54 259 10z"/>
<path d="M1227 1516 c-120 -43 -181 -173 -138 -297 14 -42 67 -101 114 -126
51 -27 151 -24 207 7 55 31 106 104 116 165 25 169 -140 307 -299 251z"/>
</g>
</svg>
