<?xml version="1.0" standalone="no"?>
<!DOCTYPE svg PUBLIC "-//W3C//DTD SVG 20010904//EN"
 "http://www.w3.org/TR/2001/REC-SVG-20010904/DTD/svg10.dtd">
<svg version="1.0" xmlns="http://www.w3.org/2000/svg"
 width="260.000000pt" height="260.000000pt" viewBox="0 0 260.000000 260.000000"
 preserveAspectRatio="xMidYMid meet">
<metadata>
Created by potrace 1.11, written by Peter Selinger 2001-2013
</metadata>
<g transform="translate(0.000000,260.000000) scale(0.100000,-0.100000)"
fill="#000000" stroke="none">
<path d="M1053 2454 c-407 -83 -742 -384 -873 -783 -15 -48 -31 -105 -35 -127
-3 -21 -10 -61 -15 -89 -13 -73 -5 -308 14 -395 49 -224 152 -420 307 -581
176 -182 395 -299 644 -343 105 -19 325 -15 429 8 303 66 570 250 738 510 126
194 190 416 190 651 -2 743 -677 1297 -1399 1149z m428 -89 c429 -86 764 -415
854 -840 20 -94 27 -271 14 -370 -70 -531 -524 -934 -1054 -937 -590 -3 -1073
475 -1077 1067 -2 238 50 416 178 614 234 359 675 548 1085 466z"/>
<path d="M1135 2249 c-22 -4 -51 -10 -64 -13 -58 -13 -161 -51 -221 -83 -456
-243 -640 -801 -419 -1269 109 -230 315 -413 555 -493 120 -40 197 -50 334
-46 128 4 147 7 239 36 338 107 582 376 657 723 20 92 23 261 7 355 -51 295
-233 550 -495 690 -72 39 -191 83 -258 96 -56 11 -291 14 -335 4z m285 -80
c78 -15 92 -18 129 -30 349 -111 594 -439 605 -810 5 -156 -23 -289 -91 -424
-112 -223 -309 -386 -553 -455 -102 -29 -270 -35 -381 -14 -330 62 -599 315
-683 640 -66 255 -13 537 138 742 48 64 153 169 206 204 110 74 247 130 348
144 26 3 49 8 50 9 8 7 191 3 232 -6z"/>
<path d="M1189 2035 c-2 -1 -20 -5 -39 -8 -50 -7 -151 -43 -207 -73 -71 -39
-111 -70 -176 -136 -285 -289 -282 -754 7 -1044 138 -138 290 -203 486 -210
169 -5 288 27 422 115 145 96 242 222 299 391 69 206 41 438 -75 624 -134 215
-360 342 -612 344 -56 1 -103 -1 -105 -3z m266 -80 c225 -58 405 -236 477
-470 27 -89 29 -248 4 -345 -75 -295 -325 -502 -621 -514 -257 -12 -499 130
-617 359 -60 119 -77 186 -78 317 -3 325 250 625 560 665 25 3 47 7 49 9 9 8
172 -7 226 -21z"/>
<path d="M1167 1808 c-76 -16 -170 -71 -238 -138 -132 -130 -182 -303 -144
-495 20 -101 117 -241 213 -307 107 -74 265 -105 395 -78 176 36 342 190 387
360 19 72 21 82 21 145 -1 243 -157 449 -387 510 -61 16 -180 18 -247 3z m258
-57 c59 -16 152 -75 202 -129 79 -84 126 -209 126 -332 0 -170 -109 -339 -266
-414 -250 -120 -543 2 -641 267 -24 65 -32 191 -16 258 64 270 325 424 595
350z"/>
<path d="M1180 1583 c-62 -23 -150 -113 -173 -178 -52 -149 12 -303 154 -374
53 -26 70 -30 132 -28 122 4 208 61 263 172 69 143 6 322 -140 397 -55 29
-173 34 -236 11z m225 -41 c170 -87 197 -323 52 -447 -158 -136 -409 -36 -434
173 -15 127 59 244 182 290 45 17 153 9 200 -16z"/>
</g>
</svg>
